<?xml version="1.0" encoding="UTF-8"?> <svg xmlns="http://www.w3.org/2000/svg" height="31" viewBox="0 0 179 31" width="179"><g fill="#0080ff" fill-rule="evenodd"><path d="m15.2063868 30.3830155v-5.8325867c6.1896839 0 10.9509791-6.1301677 8.6000896-12.6174325-.8927429-2.41040575-2.797261-4.34468195-5.2076667-5.20766672-6.4872648-2.35088954-12.61743251 2.41040573-12.61743251 8.60008962h-5.83258671c0-9.84992963 9.52259055-17.52751827 19.84864972-14.31364395 4.5232305 1.39863048 8.0942019 4.99936004 9.4928324 9.49283245 3.2138743 10.3558172-4.4339562 19.8784078-14.2838858 19.8784078z" fill-rule="nonzero"></path><path d="m15.2063868 24.5504288h-5.80282863v-5.8028286h5.80282863z"></path><path d="m9.40355817 29.0141431h-4.46371432v-4.4637143h4.46371432z"></path><path d="m4.93984385 24.5504288h-3.74952003v-3.719762h3.74952003z"></path><g fill-rule="nonzero" transform="translate(42 7)"><path d="m12.0418867 2.17532183c-1.7245171-1.20851213-3.86529696-1.84298099-6.36287346-1.84298099h-5.44114881v17.55363866h5.44114881c2.4975765 0 4.63835636-.6344689 6.36287346-1.9336194.9514577-.6646817 1.6947841-1.6314914 2.200246-2.8097907s.7730594-2.5680883.7730594-4.13915404c0-1.54085296-.2675975-2.93064191-.7730594-4.10894124-.5054619-1.14808652-1.2487883-2.08468342-2.200246-2.71915229zm-8.62258554 1.14808652h1.72451711c1.90291543 0 3.47876728.39276645 4.66808942 1.11787372 1.30825431.81574569 1.99211461 2.35659866 1.99211461 4.56213329 0 2.29617304-.6838603 3.89745164-1.99211461 4.77362294-1.12985604.7553201-2.70570788 1.1480865-4.63835636 1.1480865h-1.72451711v-11.60171645z"></path><path d="m18.8210229.12085121c-.5351949 0-.9811907.18127682-1.3379874.54383046-.3567966.36255364-.564928.81574569-.564928 1.32936334 0 .54383046.1783983.99702251.564928 1.35957615.3567967.36255364.8027925.57404326 1.3379874.57404326.535195 0 .9811908-.18127682 1.3379874-.57404326.3567967-.36255364.5649281-.84595849.5649281-1.35957615 0-.54383046-.1783984-.9970225-.5649281-1.32936334-.3567966-.36255364-.8325255-.54383046-1.3379874-.54383046z"></path><path d="m17.245171 5.528943h3.062505v12.387249h-3.062505z"></path><path d="m31.4575707 6.5561783c-.9217246-.84595849-1.9623815-1.32936334-3.0625045-1.32936334-1.6947841 0-3.0922376.60425606-4.1923606 1.75234258-1.1001229 1.14808653-1.6353179 2.65872669-1.6353179 4.44128206 0 1.7523426.535195 3.23277 1.6353179 4.4412821 1.100123 1.1480865 2.4975765 1.7523426 4.1923606 1.7523426 1.1893221 0 2.200246-.3323409 3.0327715-.9970225v.302128c0 1.0272353-.2675975 1.8127682-.8027925 2.3868115-.535195.5438304-1.2785213.8157456-2.200246.8157456-1.4271865 0-2.2894451-.5740432-3.3895681-2.0544706l-2.0813137 2.0242578.0594661.0906385c.4459958.6344688 1.129856 1.2689377 2.0515807 1.8731938.9217247.604256 2.0515807.906384 3.4193012.906384 1.8137162 0 3.3003689-.5740432 4.3707588-1.6919169 1.100123-1.1178738 1.635318-2.6285139 1.635318-4.5017077v-11.23916281h-3.0030384v1.02723531zm-.8027924 7.3114984c-.535195.604256-1.2190552.9063841-2.1110468.9063841s-1.5758519-.3021281-2.0813138-.9063841c-.535195-.6042561-.8027924-1.4200018-.8027924-2.4170243s.2675974-1.84298098.8027924-2.44723704 1.2190552-.9365969 2.0813138-.9365969c.8919916 0 1.5758518.30212803 2.1110468.9365969.5351949.60425606.8027924 1.45021454.8027924 2.44723704s-.2973305 1.8127682-.8027924 2.4170243z"></path><path d="m37.077118 5.528943h3.062505v12.387249h-3.062505z"></path><path d="m38.6529697.12085121c-.535195 0-.9811908.18127682-1.3379874.54383046-.3567967.36255364-.564928.81574569-.564928 1.32936334 0 .54383046.1783983.99702251.564928 1.35957615.3567966.36255364.8027924.57404326 1.3379874.57404326s.9811908-.18127682 1.3379874-.57404326c.3567966-.36255364.564928-.84595849.564928-1.35957615 0-.54383046-.1783983-.9970225-.564928-1.32936334-.3567966-.36255364-.8325255-.54383046-1.3379874-.54383046z"></path><path d="m46.8592925 2.20553464h-3.0030384v3.35362115h-1.7542502v2.84000351h1.7542502v5.1361765c0 1.6012786.3270636 2.7493651.9514577 3.4140468s1.7245171.9970225 3.3003689.9970225c.5054619 0 1.0109239-.0302128 1.4866527-.0604256h.1486653v-2.8400035l-1.0406569.0604256c-.7433263 0-1.2190552-.1208512-1.4569196-.3927664-.2378644-.2719153-.3567967-.8157457-.3567967-1.6314914v-4.71319731h2.8543732v-2.8400035h-2.8543732v-3.32340835z"></path><path d="m64.074731.332341h3.062505v17.553639h-3.062505z"></path><path d="m98.0893438 13.4749102c-.5351949.6344689-1.1001229 1.1782994-1.5461187 1.4502146-.4162628.2719152-.9514578.4229792-1.5758519.4229792-.8919916 0-1.6353179-.3323408-2.229979-1.0272353-.5946611-.6948944-.8919916-1.5710657-.8919916-2.6285139 0-1.0574481.2973305-1.93361936.8622585-2.59830103.5946611-.69489447 1.3082544-1.02723531 2.200246-1.02723531.9811908 0 2.0218477.63446887 2.9138393 1.69191698l2.0218476-1.96383221c-1.3082543-1.75234259-3.0030384-2.56808827-5.024886-2.56808827-1.6947841 0-3.1517037.63446887-4.3410259 1.84298099-1.1893221 1.20851213-1.7839832 2.7795779-1.7839832 4.62255885 0 1.842981.5946611 3.383834 1.7839832 4.6225589 1.1893222 1.238725 2.6462418 1.842981 4.3410259 1.842981 2.229979 0 4.0139622-.9668097 5.203284-2.7493651z"></path><path d="m110.666426 7.25107277c-.445996-.60425606-1.040657-1.11787372-1.754251-1.48042735-.743326-.36255364-1.575851-.54383046-2.527309-.54383046-1.724517 0-3.121971.63446887-4.162628 1.9034066-1.010924 1.26893774-1.546118 2.8097907-1.546118 4.65277174 0 1.8731938.564928 3.4140467 1.694784 4.6225588 1.100123 1.1782994 2.616508 1.7825554 4.430225 1.7825554 2.05158 0 3.776097-.8459585 5.024886-2.5378754l.059466-.0906384-1.992115-1.9638322c-.178398.2417024-.445996.4834048-.68386.7251072-.297331.3021281-.594661.5136177-.891992.6646817-.445996.2417024-.98119.3323408-1.546118.3323408-.862259 0-1.546119-.2417024-2.081314-.75532-.505462-.4531921-.802793-1.087661-.862259-1.8731938h8.117124l.029733-1.1480866c0-.8157457-.118932-1.57106574-.327064-2.29617301-.208131-.69489448-.535195-1.35957615-.98119-1.99404502zm-6.689938 2.93064193c.148666-.60425608.416263-1.08766093.802793-1.48042737.416263-.42297925.951458-.63446887 1.605585-.63446887.743326 0 1.308254.21148962 1.694784.63446887.356797.39276644.564928.87617129.624394 1.45021457h-4.727556z"></path><path d="m122.440715 6.46553989c-.921725-.81574569-2.200246-1.20851213-3.805831-1.20851213-1.010924 0-1.962382.24170243-2.82464.66468167-.802793.42297925-1.575852 1.08766092-2.081314 1.99404501l.029733.03021281 1.962382 1.9034066c.802792-1.29915054 1.694784-1.75234259 2.884106-1.75234259.654127 0 1.159589.18127682 1.575852.51361766.416262.33234083.594661.78553288.594661 1.32936334v.60425604c-.77306-.2417024-1.516386-.3625536-2.259712-.3625536-1.516386 0-2.765174.3625536-3.686899 1.0876609s-1.397453 1.7825554-1.397453 3.0817059c0 1.1480866.386529 2.1148963 1.189322 2.8097907.802792.6646817 1.783983 1.0272353 2.943572 1.0272353s2.259712-.4834048 3.240903-1.2991505v1.0272353h3.003038v-7.97618004c.059466-1.48042736-.416263-2.65872668-1.36772-3.47447237zm-5.441149 6.70724231c.356797-.2417024.832525-.3625536 1.45692-.3625536.743326 0 1.516385.151064 2.319178.453192v1.2085121c-.654127.6344689-1.546119.9365969-2.646242.9365969-.535195 0-.951458-.1208512-1.219055-.3625536-.267598-.2417024-.416263-.5136176-.416263-.9063841 0-.3927664.178398-.7251073.505462-.9668097z"></path><path d="m135.642191 6.70724232c-.862259-.96680971-2.051581-1.45021456-3.567967-1.45021456-1.219055 0-2.200246.36255364-2.943572 1.05744811v-.75532008h-3.003039v12.38724931h3.062505v-6.8583063c0-.9365969.208131-1.691917.654127-2.20553465.445996-.54383046 1.010924-.78553289 1.813716-.78553289.683861 0 1.219056.24170243 1.605585.69489448.38653.48340485.594661 1.11787372.594661 1.93361936v7.1604344h3.062505v-7.1604344c0-1.69191694-.416263-3.05149308-1.278521-4.01830278z"></path><path d="m60.2391666 6.46553989c-.9217247-.81574569-2.200246-1.20851213-3.8058309-1.20851213-1.0109238 0-1.9623815.24170243-2.82464.66468167-.8027925.42297925-1.5758519 1.08766092-2.0813138 1.99404501l.0297331.03021281 1.9623815 1.9034066c.8027924-1.29915054 1.694784-1.75234259 2.8841062-1.75234259.6541272 0 1.1595891.18127682 1.5758518.51361766.4162628.33234083.5946611.78553288.5946611 1.32936334v.60425604c-.7730594-.2417024-1.5163857-.3625536-2.2597121-.3625536-1.5163857 0-2.765174.3625536-3.6868986 1.0876609-.9217247.7251073-1.3974535 1.7825554-1.3974535 3.0817059 0 1.1480866.3865297 2.1148963 1.1893221 2.8097907.8027925.6646817 1.7839832 1.0272353 2.9435723 1.0272353s2.2597121-.4834048 3.2409029-1.2991505v1.0272353h3.0030384v-7.97618004c.029733-1.48042736-.4459958-2.65872668-1.3677205-3.47447237zm-5.4411488 6.70724231c.3567966-.2417024.8325255-.3625536 1.4569196-.3625536.7433264 0 1.5163858.151064 2.3191782.453192v1.2085121c-.6541272.6344689-1.5461188.9365969-2.6462418.9365969-.5351949 0-.9514577-.1208512-1.2190552-.3625536-.2675974-.2417024-.4162627-.5136176-.4162627-.9063841 0-.3927664.1486653-.7251073.5054619-.9668097z"></path><path d="m78.2573971 18.1578947c-4.9059539 0-8.9199161-4.0485156-8.9199161-9.06384093s3.9842292-9.06384097 8.9199161-9.06384097c4.9059538 0 8.9199161 4.04851564 8.9199161 9.06384097s-4.0139623 9.06384093-8.9199161 9.06384093zm0-14.89491195c-3.1814367 0-5.7682124 2.62851388-5.7682124 5.86128382 0 3.23276993 2.5867757 5.86128383 5.7682124 5.86128383s5.7682124-2.6285139 5.7682124-5.86128383c0-3.23276994-2.5867757-5.86128382-5.7682124-5.86128382z"></path></g></g></svg> 